<svg width="24" height="24" viewBox="0 0 24 24" fill="none" xmlns="http://www.w3.org/2000/svg">
<path d="M17.3782 0.63142C17.5753 0.830271 17.7317 1.06647 17.8384 1.32649C17.9451 1.58651 18 1.86526 18 2.14676C18 2.42827 17.9451 2.70701 17.8384 2.96704C17.7317 3.22706 17.5753 3.46326 17.3782 3.66211L9.12905 12.0019L17.3782 20.3416C17.7758 20.7435 17.9991 21.2886 17.9991 21.857C17.9991 22.4253 17.7758 22.9704 17.3782 23.3723C16.9807 23.7742 16.4415 24 15.8794 24C15.3172 24 14.778 23.7742 14.3805 23.3723L4.62176 13.5065C4.42466 13.3076 4.2683 13.0714 4.16161 12.8114C4.05492 12.5514 4 12.2726 4 11.9911C4 11.7096 4.05492 11.4309 4.16161 11.1709C4.2683 10.9108 4.42466 10.6746 4.62176 10.4758L14.3805 0.609925C15.1884 -0.206856 16.5491 -0.206856 17.3782 0.63142Z" fill="black"/>
</svg>
